<svg xmlns="http://www.w3.org/2000/svg" version="1.1" xmlns:xlink="http://www.w3.org/1999/xlink" xmlns:svgjs="http://svgjs.dev/svgjs" width="1000" height="1000" viewBox="0 0 1000 1000"><rect width="1000" height="1000" fill="#000000"></rect><g transform="matrix(0.7,0,0,0.7,149.57575935917578,429.2814519303686)"><svg viewBox="0 0 396 80" data-background-color="#ffffff" preserveAspectRatio="xMidYMid meet" height="202" width="1000" xmlns="http://www.w3.org/2000/svg" xmlns:xlink="http://www.w3.org/1999/xlink"><defs></defs><g id="tight-bounds" transform="matrix(1,0,0,1,0.23999908955732963,0.010494207726310378)"><svg viewBox="0 0 395.52 79.9790064406306" height="79.9790064406306" width="395.52"><g><svg viewBox="0 0 568.492399568363 114.95615212006383" height="79.9790064406306" width="395.52"><g><rect width="4.817435309427432" height="83.5969123593807" x="408.131087197454" y="15.67961988034157" fill="#ffffff" opacity="1" stroke-width="0" stroke="transparent" fill-opacity="1" class="rect-o-0" data-fill-palette-color="primary" rx="1%" id="o-0" data-palette-color="#093d65"></rect></g><g transform="matrix(1,0,0,1,0,15.88757239864848)"><svg viewBox="0 0 395.52 83.18100732276687" height="83.18100732276687" width="395.52"><g><svg viewBox="0 0 395.52 83.18100732276687" height="83.18100732276687" width="395.52"><g><svg viewBox="0 0 395.52 53.41960723433983" height="53.41960723433983" width="395.52"><g transform="matrix(1,0,0,1,0,0)"><svg width="395.52" viewBox="4.400000095367432 -35.5 266.5272216796875 36" height="53.41960723433983" data-palette-color="#093d65"><g class="undefined-text-0" data-fill-palette-color="primary" id="text-0"><path d="M6.4-35L6.4-35 24.2-35Q25.05-35 25.65-34.45 26.25-33.9 26.25-33.05L26.25-33.05Q26.25-32.2 25.65-31.68 25.05-31.15 24.2-31.15L24.2-31.15 8.1-31.15 8.55-32 8.55-19.35 8.05-19.9 21.95-19.9Q22.8-19.9 23.4-19.35 24-18.8 24-17.95L24-17.95Q24-17.1 23.4-16.57 22.8-16.05 21.95-16.05L21.95-16.05 8.2-16.05 8.55-16.5 8.55-3.55 8.25-3.9 24.2-3.9Q25.05-3.9 25.65-3.3 26.25-2.7 26.25-1.95L26.25-1.95Q26.25-1.1 25.65-0.55 25.05 0 24.2 0L24.2 0 6.4 0Q5.55 0 4.98-0.6 4.4-1.2 4.4-2.05L4.4-2.05 4.4-33Q4.4-33.85 4.98-34.43 5.55-35 6.4-35ZM43.35-11.8L33.25-11.8Q32.4-11.8 31.82-12.38 31.25-12.95 31.25-13.85L31.25-13.85Q31.25-14.7 31.82-15.25 32.4-15.8 33.25-15.8L33.25-15.8 43.35-15.8Q44.2-15.8 44.77-15.2 45.35-14.6 45.35-13.75L45.35-13.75Q45.35-12.9 44.77-12.35 44.2-11.8 43.35-11.8L43.35-11.8ZM62.7 0.5L62.7 0.5Q58.99 0.5 56.2-0.6 53.39-1.7 50.8-4.1L50.8-4.1Q50.45-4.45 50.22-4.88 49.99-5.3 49.99-5.8L49.99-5.8Q49.99-6.6 50.57-7.23 51.14-7.85 51.99-7.85L51.99-7.85Q52.7-7.85 53.24-7.3L53.24-7.3Q55.2-5.4 57.47-4.4 59.74-3.4 62.59-3.4L62.59-3.4Q64.8-3.4 66.57-4.1 68.34-4.8 69.39-6.05 70.44-7.3 70.44-8.95L70.44-8.95Q70.39-10.95 69.27-12.25 68.14-13.55 66.17-14.43 64.19-15.3 61.59-15.9L61.59-15.9Q59.3-16.45 57.37-17.25 55.45-18.05 54.05-19.23 52.64-20.4 51.87-22.08 51.09-23.75 51.09-26L51.09-26Q51.09-28.85 52.59-31 54.09-33.15 56.74-34.33 59.39-35.5 62.84-35.5L62.84-35.5Q65.89-35.5 68.62-34.5 71.34-33.5 73-31.75L73-31.75Q74-30.8 74-29.9L74-29.9Q74-29.15 73.37-28.53 72.75-27.9 71.94-27.9L71.94-27.9Q71.39-27.9 70.94-28.3L70.94-28.3Q70.09-29.25 68.8-30 67.5-30.75 65.94-31.2 64.39-31.65 62.84-31.65L62.84-31.65Q60.55-31.65 58.8-30.98 57.05-30.3 56.07-29.08 55.09-27.85 55.09-26.15L55.09-26.15Q55.09-24.25 56.2-23.03 57.3-21.8 59.14-21.03 60.99-20.25 63.24-19.65L63.24-19.65Q65.69-19.05 67.77-18.28 69.84-17.5 71.34-16.35 72.84-15.2 73.67-13.43 74.5-11.65 74.5-9.05L74.5-9.05Q74.5-6.3 72.94-4.15 71.39-2 68.72-0.78 66.05 0.45 62.7 0.5ZM83.29-35L83.29-35Q84.14-35 84.74-34.43 85.34-33.85 85.34-32.95L85.34-32.95 85.34-2.05Q85.34-1.2 84.72-0.6 84.09 0 83.24 0L83.24 0Q82.29 0 81.74-0.6 81.19-1.2 81.19-2.05L81.19-2.05 81.19-32.95Q81.19-33.85 81.79-34.43 82.39-35 83.29-35ZM106.34-35L106.34-35Q107.24-35 107.82-34.43 108.39-33.85 108.39-32.95L108.39-32.95 108.39-2.05Q108.39-1.2 107.79-0.6 107.19 0 106.29 0L106.29 0Q105.44 0 104.84-0.6 104.24-1.2 104.24-2.05L104.24-2.05 104.24-32.95Q104.24-33.85 104.87-34.43 105.49-35 106.34-35ZM82.94-15.85L83.09-19.75 106.39-19.75 106.34-15.85 82.94-15.85ZM148.74-17.5L148.74-17.5Q148.74-13.65 147.49-10.38 146.24-7.1 143.99-4.65 141.74-2.2 138.64-0.85 135.54 0.5 131.89 0.5L131.89 0.5Q128.19 0.5 125.12-0.85 122.04-2.2 119.79-4.65 117.54-7.1 116.29-10.38 115.04-13.65 115.04-17.5L115.04-17.5Q115.04-21.4 116.29-24.68 117.54-27.95 119.79-30.38 122.04-32.8 125.12-34.15 128.19-35.5 131.89-35.5L131.89-35.5Q135.54-35.5 138.64-34.15 141.74-32.8 143.99-30.38 146.24-27.95 147.49-24.68 148.74-21.4 148.74-17.5ZM144.44-17.5L144.44-17.5Q144.44-21.6 142.81-24.75 141.19-27.9 138.39-29.7 135.59-31.5 131.89-31.5L131.89-31.5Q128.19-31.5 125.37-29.7 122.54-27.9 120.94-24.75 119.34-21.6 119.34-17.5L119.34-17.5Q119.34-13.45 120.94-10.28 122.54-7.1 125.37-5.3 128.19-3.5 131.89-3.5L131.89-3.5Q135.59-3.5 138.39-5.3 141.19-7.1 142.81-10.28 144.44-13.45 144.44-17.5ZM157.39-35L169.09-35Q171.84-35 174.04-33.65 176.24-32.3 177.51-29.95 178.79-27.6 178.79-24.6L178.79-24.6Q178.79-21.65 177.51-19.25 176.24-16.85 174.04-15.45 171.84-14.05 169.09-14.05L169.09-14.05 158.94-14.05 159.29-14.65 159.29-2.05Q159.29-1.2 158.74-0.6 158.19 0 157.34 0L157.34 0Q156.44 0 155.91-0.6 155.39-1.2 155.39-2.05L155.39-2.05 155.39-33Q155.39-33.85 155.96-34.43 156.54-35 157.39-35L157.39-35ZM158.94-17.9L169.09-17.9Q170.74-17.9 171.99-18.8 173.24-19.7 173.99-21.25 174.74-22.8 174.74-24.6L174.74-24.6Q174.74-26.5 173.99-27.95 173.24-29.4 171.99-30.28 170.74-31.15 169.09-31.15L169.09-31.15 158.94-31.15 159.29-31.7 159.29-17.4 158.94-17.9ZM187.34-35L199.03-35Q201.78-35 203.99-33.65 206.19-32.3 207.46-29.95 208.74-27.6 208.74-24.6L208.74-24.6Q208.74-21.65 207.46-19.25 206.19-16.85 203.99-15.45 201.78-14.05 199.03-14.05L199.03-14.05 188.88-14.05 189.24-14.65 189.24-2.05Q189.24-1.2 188.69-0.6 188.13 0 187.28 0L187.28 0Q186.38 0 185.86-0.6 185.34-1.2 185.34-2.05L185.34-2.05 185.34-33Q185.34-33.85 185.91-34.43 186.49-35 187.34-35L187.34-35ZM188.88-17.9L199.03-17.9Q200.69-17.9 201.94-18.8 203.19-19.7 203.94-21.25 204.69-22.8 204.69-24.6L204.69-24.6Q204.69-26.5 203.94-27.95 203.19-29.4 201.94-30.28 200.69-31.15 199.03-31.15L199.03-31.15 188.88-31.15 189.24-31.7 189.24-17.4 188.88-17.9ZM217.28-35L217.28-35 235.08-35Q235.93-35 236.53-34.45 237.13-33.9 237.13-33.05L237.13-33.05Q237.13-32.2 236.53-31.68 235.93-31.15 235.08-31.15L235.08-31.15 218.98-31.15 219.43-32 219.43-19.35 218.93-19.9 232.83-19.9Q233.68-19.9 234.28-19.35 234.88-18.8 234.88-17.95L234.88-17.95Q234.88-17.1 234.28-16.57 233.68-16.05 232.83-16.05L232.83-16.05 219.08-16.05 219.43-16.5 219.43-3.55 219.13-3.9 235.08-3.9Q235.93-3.9 236.53-3.3 237.13-2.7 237.13-1.95L237.13-1.95Q237.13-1.1 236.53-0.55 235.93 0 235.08 0L235.08 0 217.28 0Q216.43 0 215.86-0.6 215.28-1.2 215.28-2.05L215.28-2.05 215.28-33Q215.28-33.85 215.86-34.43 216.43-35 217.28-35ZM246.08 0L246.08 0Q245.13 0 244.45-0.6 243.78-1.2 243.78-2.05L243.78-2.05 243.78-33Q243.78-33.85 244.35-34.43 244.93-35 245.78-35L245.78-35 259.58-35Q262.38-35 264.63-33.73 266.88-32.45 268.2-30.23 269.53-28 269.53-25.1L269.53-25.1Q269.53-23 268.73-21.18 267.93-19.35 266.53-18.03 265.13-16.7 263.33-16L263.33-16 262.23-16.8Q263.93-16.4 265.28-15.38 266.63-14.35 267.48-12.78 268.33-11.2 268.38-9.1L268.38-9.1Q268.48-7.25 268.63-6.15 268.78-5.05 269.08-4.42 269.38-3.8 269.93-3.45L269.93-3.45Q270.63-3 270.86-2.25 271.08-1.5 270.58-0.8L270.58-0.8Q270.28-0.35 269.73-0.18 269.18 0 268.63-0.05 268.08-0.1 267.68-0.35L267.68-0.35Q266.88-0.8 266.13-1.68 265.38-2.55 264.88-4.2 264.38-5.85 264.38-8.7L264.38-8.7Q264.38-10.3 263.88-11.35 263.38-12.4 262.53-13.05 261.68-13.7 260.63-13.95 259.58-14.2 258.48-14.2L258.48-14.2 247.33-14.2 247.93-15.1 247.93-2.05Q247.93-1.2 247.43-0.6 246.93 0 246.08 0ZM247.93-16.9L247.33-17.8 259.58-17.8Q261.03-17.9 262.31-18.8 263.58-19.7 264.4-21.33 265.23-22.95 265.23-25L265.23-25Q265.23-27.65 263.56-29.4 261.88-31.15 259.33-31.15L259.33-31.15 247.53-31.15 247.93-32.1 247.93-16.9Z" fill="#ffffff" data-fill-palette-color="primary"></path></g></svg></g></svg></g><g transform="matrix(1,0,0,1,163.310208,66.03069443179383)"><svg viewBox="0 0 232.209792 17.15031289097304" height="17.15031289097304" width="232.209792"><g transform="matrix(1,0,0,1,0,0)"><svg width="232.209792" viewBox="2.5 -37.099998474121094 620.7334594726562 45.849998474121094" height="17.15031289097304" data-palette-color="#f98e54"><path d="M14.95 0.5L14.95 0.5Q11.25 0.5 8.43-1.23 5.6-2.95 4.05-6.03 2.5-9.1 2.5-13.1L2.5-13.1Q2.5-17.2 4.08-20.33 5.65-23.45 8.47-25.23 11.3-27 15-27L15-27Q18.75-27 21.53-25.25 24.3-23.5 25.85-20.38 27.4-17.25 27.4-13.2L27.4-13.2Q27.4-9.15 25.83-6.08 24.25-3 21.48-1.25 18.7 0.5 14.95 0.5L14.95 0.5ZM15.05-2.15L15.05-2.15Q17.85-2.15 19.85-3.5 21.85-4.85 22.93-7.35 24-9.85 24-13.2L24-13.2Q24-16.6 22.9-19.13 21.8-21.65 19.78-23.03 17.75-24.4 15-24.4L15-24.4Q12.25-24.4 10.2-23.03 8.15-21.65 7.03-19.13 5.9-16.6 5.9-13.2L5.9-13.2Q5.9-9.85 7.03-7.35 8.15-4.85 10.2-3.5 12.25-2.15 15.05-2.15L15.05-2.15ZM34.65 0L34.65 0Q34.05 0 34.05-0.6L34.05-0.6 34.05-25.95Q34.05-26.5 34.55-26.5L34.55-26.5 36.7-26.5Q37.2-26.5 37.2-26L37.2-26 37.2-23.05Q37.2-22.8 37.32-22.73 37.45-22.65 37.65-22.9L37.65-22.9Q39.4-24.2 40.85-25.13 42.3-26.05 43.8-26.53 45.3-27 47.05-27L47.05-27Q51-27 53.05-24.93 55.1-22.85 55.1-19.55L55.1-19.55 55.1-0.65Q55.1 0 54.5 0L54.5 0 52.4 0Q52.1 0 51.95-0.15 51.8-0.3 51.8-0.6L51.8-0.6 51.8-18.65Q51.8-21.3 50.47-22.78 49.15-24.25 46.25-24.25L46.25-24.25Q44.65-24.25 43.27-23.78 41.9-23.3 40.5-22.38 39.1-21.45 37.35-20L37.35-20 37.35-0.6Q37.35 0 36.7 0L36.7 0 34.65 0ZM66.4-36.5L66.4-0.75Q66.4-0.3 66.25-0.15 66.1 0 65.65 0L65.65 0 63.75 0Q63.1 0 63.1-0.6L63.1-0.6 63.15-36.5Q63.15-37.1 63.65-37.1L63.65-37.1 65.9-37.1Q66.4-37.1 66.4-36.5L66.4-36.5ZM77.99-25.9L77.99-0.75Q77.99-0.3 77.84-0.15 77.69 0 77.19 0L77.19 0 75.34 0Q74.94 0 74.82-0.13 74.69-0.25 74.69-0.6L74.69-0.6 74.69-25.9Q74.69-26.5 75.24-26.5L75.24-26.5 77.44-26.5Q77.99-26.5 77.99-25.9L77.99-25.9ZM78.19-36.4L78.19-32.55Q78.19-31.65 77.44-31.65L77.44-31.65 75.14-31.65Q74.74-31.65 74.62-31.85 74.49-32.05 74.49-32.45L74.49-32.45 74.49-36.35Q74.49-37.1 75.14-37.1L75.14-37.1 77.54-37.1Q78.19-37.1 78.19-36.4L78.19-36.4ZM86.89 0L86.89 0Q86.29 0 86.29-0.6L86.29-0.6 86.29-25.95Q86.29-26.5 86.79-26.5L86.79-26.5 88.94-26.5Q89.44-26.5 89.44-26L89.44-26 89.44-23.05Q89.44-22.8 89.57-22.73 89.69-22.65 89.89-22.9L89.89-22.9Q91.64-24.2 93.09-25.13 94.54-26.05 96.04-26.53 97.54-27 99.29-27L99.29-27Q103.24-27 105.29-24.93 107.34-22.85 107.34-19.55L107.34-19.55 107.34-0.65Q107.34 0 106.74 0L106.74 0 104.64 0Q104.34 0 104.19-0.15 104.04-0.3 104.04-0.6L104.04-0.6 104.04-18.65Q104.04-21.3 102.72-22.78 101.39-24.25 98.49-24.25L98.49-24.25Q96.89-24.25 95.52-23.78 94.14-23.3 92.74-22.38 91.34-21.45 89.59-20L89.59-20 89.59-0.6Q89.59 0 88.94 0L88.94 0 86.89 0ZM117.14-11.75L117.14-11.75Q117.14-9.2 118.39-7 119.64-4.8 121.71-3.48 123.79-2.15 126.39-2.15L126.39-2.15Q129.14-2.15 131.16-3.25 133.19-4.35 134.59-6.5L134.59-6.5Q134.74-6.75 134.89-6.78 135.04-6.8 135.24-6.7L135.24-6.7 136.94-5.75Q137.34-5.55 136.99-5.15L136.99-5.15Q135.74-3.25 134.16-2 132.59-0.75 130.59-0.13 128.59 0.5 126.19 0.5L126.19 0.5Q122.49 0.5 119.69-1.2 116.89-2.9 115.29-5.98 113.69-9.05 113.69-13L113.69-13Q113.69-17.4 115.34-20.5 116.99-23.6 119.79-25.3 122.59-27 126.14-27L126.14-27Q129.74-27 132.39-25.4 135.04-23.8 136.49-20.8 137.94-17.8 137.94-13.55L137.94-13.55Q137.94-13.2 137.86-12.85 137.79-12.5 137.24-12.5L137.24-12.5 117.49-12.5Q117.34-12.5 117.24-12.28 117.14-12.05 117.14-11.75L117.14-11.75ZM117.19-14.85L133.74-14.85Q134.29-14.85 134.44-15 134.59-15.15 134.59-15.55L134.59-15.55Q134.59-17.95 133.56-19.98 132.54-22 130.66-23.23 128.79-24.45 126.19-24.45L126.19-24.45Q123.24-24.45 121.24-23.03 119.24-21.6 118.21-19.4 117.19-17.2 117.19-14.85L117.19-14.85ZM170.93-20.9L170.93-20.9Q169.83-22.5 167.96-23.48 166.08-24.45 163.48-24.45L163.48-24.45Q160.58-24.45 158.66-23.23 156.73-22 156.73-19.85L156.73-19.85Q156.73-18.7 157.61-17.68 158.48-16.65 161.13-15.8L161.13-15.8 167.63-13.8Q170.88-12.85 172.38-11.13 173.88-9.4 173.88-7.1L173.88-7.1Q173.88-4.85 172.51-3.15 171.13-1.45 168.73-0.48 166.33 0.5 163.33 0.5L163.33 0.5Q159.53 0.5 156.61-1.05 153.68-2.6 152.43-5.05L152.43-5.05Q152.33-5.25 152.33-5.4 152.33-5.55 152.53-5.7L152.53-5.7 154.13-6.65Q154.33-6.75 154.51-6.73 154.68-6.7 154.78-6.55L154.78-6.55Q155.63-5.2 156.83-4.2 158.03-3.2 159.66-2.65 161.28-2.1 163.38-2.1L163.38-2.1Q165.43-2.1 167.08-2.68 168.73-3.25 169.71-4.3 170.68-5.35 170.68-6.75L170.68-6.75Q170.68-8.25 169.46-9.33 168.23-10.4 165.33-11.2L165.33-11.2 160.23-12.7Q156.43-13.8 155.01-15.48 153.58-17.15 153.58-19.25L153.58-19.25Q153.58-21.6 154.86-23.33 156.13-25.05 158.38-26.03 160.63-27 163.53-27L163.53-27Q166.78-27 169.33-25.75 171.88-24.5 173.28-22.35L173.28-22.35Q173.43-22.2 173.43-22.05 173.43-21.9 173.23-21.8L173.23-21.8 171.53-20.8Q171.38-20.75 171.23-20.75 171.08-20.75 170.93-20.9L170.93-20.9ZM181.08 0L181.08 0Q180.48 0 180.48-0.6L180.48-0.6 180.48-36.55Q180.48-37.1 180.98-37.1L180.98-37.1 183.13-37.1Q183.63-37.1 183.63-36.6L183.63-36.6 183.63-23.1Q183.63-22.85 183.76-22.8 183.88-22.75 184.08-22.95L184.08-22.95Q185.88-24.3 187.36-25.2 188.83-26.1 190.31-26.55 191.78-27 193.48-27L193.48-27Q197.43-27 199.48-24.95 201.53-22.9 201.53-19.5L201.53-19.5 201.53-0.65Q201.53 0 200.93 0L200.93 0 198.83 0Q198.53 0 198.38-0.15 198.23-0.3 198.23-0.6L198.23-0.6 198.23-18.65Q198.23-21.3 196.91-22.78 195.58-24.25 192.68-24.25L192.68-24.25Q191.08-24.25 189.71-23.78 188.33-23.3 186.93-22.38 185.53-21.45 183.78-20L183.78-20 183.78-0.6Q183.78 0 183.13 0L183.13 0 181.08 0ZM220.33 0.5L220.33 0.5Q216.63 0.5 213.8-1.23 210.98-2.95 209.43-6.03 207.88-9.1 207.88-13.1L207.88-13.1Q207.88-17.2 209.45-20.33 211.03-23.45 213.85-25.23 216.68-27 220.38-27L220.38-27Q224.13-27 226.9-25.25 229.68-23.5 231.23-20.38 232.78-17.25 232.78-13.2L232.78-13.2Q232.78-9.15 231.2-6.08 229.63-3 226.85-1.25 224.08 0.5 220.33 0.5L220.33 0.5ZM220.43-2.15L220.43-2.15Q223.23-2.15 225.23-3.5 227.23-4.85 228.3-7.35 229.38-9.85 229.38-13.2L229.38-13.2Q229.38-16.6 228.28-19.13 227.18-21.65 225.15-23.03 223.13-24.4 220.38-24.4L220.38-24.4Q217.63-24.4 215.58-23.03 213.53-21.65 212.4-19.13 211.28-16.6 211.28-13.2L211.28-13.2Q211.28-9.85 212.4-7.35 213.53-4.85 215.58-3.5 217.63-2.15 220.43-2.15L220.43-2.15ZM242.03-26.5L242.03-26.5Q242.63-26.5 242.63-25.85L242.63-25.85 242.63-23.55Q242.63-23.15 242.8-23.1 242.98-23.05 243.28-23.35L243.28-23.35Q243.78-23.9 244.7-24.75 245.63-25.6 247.23-26.3 248.83-27 251.23-27L251.23-27Q254.38-27 256.88-25.53 259.38-24.05 260.88-21.13 262.38-18.2 262.38-13.7L262.38-13.7Q262.38-9.3 260.93-6.13 259.48-2.95 256.85-1.23 254.23 0.5 250.68 0.5L250.68 0.5Q248.28 0.5 246.48-0.25 244.68-1 243.48-2L243.48-2Q243.03-2.4 242.88-2.3 242.73-2.2 242.73-1.65L242.73-1.65 242.73 7.65Q242.73 8.25 242.18 8.25L242.18 8.25 239.93 8.25Q239.43 8.25 239.43 7.7L239.43 7.7 239.43-25.8Q239.43-26.2 239.58-26.35 239.73-26.5 240.13-26.5L240.13-26.5 242.03-26.5ZM242.73-5.6L242.73-5.6Q244.38-3.95 246.13-3 247.88-2.05 249.98-2.05L249.98-2.05Q252.63-2.05 254.63-3.4 256.63-4.75 257.8-7.3 258.98-9.85 258.98-13.55L258.98-13.55Q258.98-17.4 257.78-19.78 256.58-22.15 254.6-23.3 252.63-24.45 250.33-24.45L250.33-24.45Q248.08-24.45 246.35-23.45 244.63-22.45 243.68-21.03 242.73-19.6 242.73-18.2L242.73-18.2 242.73-5.6ZM271.72-26.5L271.72-26.5Q272.32-26.5 272.32-25.85L272.32-25.85 272.32-23.55Q272.32-23.15 272.5-23.1 272.67-23.05 272.97-23.35L272.97-23.35Q273.47-23.9 274.4-24.75 275.32-25.6 276.92-26.3 278.52-27 280.92-27L280.92-27Q284.07-27 286.57-25.53 289.07-24.05 290.57-21.13 292.07-18.2 292.07-13.7L292.07-13.7Q292.07-9.3 290.62-6.13 289.17-2.95 286.55-1.23 283.92 0.5 280.37 0.5L280.37 0.5Q277.97 0.5 276.17-0.25 274.37-1 273.17-2L273.17-2Q272.72-2.4 272.57-2.3 272.42-2.2 272.42-1.65L272.42-1.65 272.42 7.65Q272.42 8.25 271.87 8.25L271.87 8.25 269.62 8.25Q269.12 8.25 269.12 7.7L269.12 7.7 269.12-25.8Q269.12-26.2 269.27-26.35 269.42-26.5 269.82-26.5L269.82-26.5 271.72-26.5ZM272.42-5.6L272.42-5.6Q274.07-3.95 275.82-3 277.57-2.05 279.67-2.05L279.67-2.05Q282.32-2.05 284.32-3.4 286.32-4.75 287.5-7.3 288.67-9.85 288.67-13.55L288.67-13.55Q288.67-17.4 287.47-19.78 286.27-22.15 284.3-23.3 282.32-24.45 280.02-24.45L280.02-24.45Q277.77-24.45 276.05-23.45 274.32-22.45 273.37-21.03 272.42-19.6 272.42-18.2L272.42-18.2 272.42-5.6ZM302.12-25.9L302.12-0.75Q302.12-0.3 301.97-0.15 301.82 0 301.32 0L301.32 0 299.47 0Q299.07 0 298.94-0.13 298.82-0.25 298.82-0.6L298.82-0.6 298.82-25.9Q298.82-26.5 299.37-26.5L299.37-26.5 301.57-26.5Q302.12-26.5 302.12-25.9L302.12-25.9ZM302.32-36.4L302.32-32.55Q302.32-31.65 301.57-31.65L301.57-31.65 299.27-31.65Q298.87-31.65 298.75-31.85 298.62-32.05 298.62-32.45L298.62-32.45 298.62-36.35Q298.62-37.1 299.27-37.1L299.27-37.1 301.67-37.1Q302.32-37.1 302.32-36.4L302.32-36.4ZM311.02 0L311.02 0Q310.42 0 310.42-0.6L310.42-0.6 310.42-25.95Q310.42-26.5 310.92-26.5L310.92-26.5 313.07-26.5Q313.57-26.5 313.57-26L313.57-26 313.57-23.05Q313.57-22.8 313.69-22.73 313.82-22.65 314.02-22.9L314.02-22.9Q315.77-24.2 317.22-25.13 318.67-26.05 320.17-26.53 321.67-27 323.42-27L323.42-27Q327.37-27 329.42-24.93 331.47-22.85 331.47-19.55L331.47-19.55 331.47-0.65Q331.47 0 330.87 0L330.87 0 328.77 0Q328.47 0 328.32-0.15 328.17-0.3 328.17-0.6L328.17-0.6 328.17-18.65Q328.17-21.3 326.84-22.78 325.52-24.25 322.62-24.25L322.62-24.25Q321.02-24.25 319.64-23.78 318.27-23.3 316.87-22.38 315.47-21.45 313.72-20L313.72-20 313.72-0.6Q313.72 0 313.07 0L313.07 0 311.02 0ZM362.62-26.75L362.62-26.75Q363.17-26.75 363.37-26.58 363.57-26.4 363.57-26L363.57-26 363.57-24.75Q363.57-24.3 363.39-24.08 363.22-23.85 362.67-23.85L362.67-23.85Q361.77-23.85 361.17-23.73 360.57-23.6 360.02-23.35L360.02-23.35Q358.77-22.8 359.02-22.2L359.02-22.2Q359.22-21.6 359.57-20.75 359.92-19.9 359.92-18.5L359.92-18.5Q359.92-16.3 358.82-14.45 357.72-12.6 355.37-11.53 353.02-10.45 349.37-10.45L349.37-10.45Q346.72-10.45 345.19-10.13 343.67-9.8 343.04-9.28 342.42-8.75 342.42-8.2L342.42-8.2Q342.42-7.35 343.57-6.98 344.72-6.6 347.37-6.45L347.37-6.45 353.62-6.1Q357.87-5.85 359.84-4.03 361.82-2.2 361.82 0.75L361.82 0.75Q361.82 4.55 358.54 6.65 355.27 8.75 349.32 8.75L349.32 8.75Q343.22 8.75 339.99 6.88 336.77 5 336.77 1.55L336.77 1.55Q336.77-0.2 337.94-1.68 339.12-3.15 341.37-4.35L341.37-4.35Q341.97-4.6 341.37-4.9L341.37-4.9Q340.37-5.35 339.82-6.05 339.27-6.75 339.27-7.65L339.27-7.65Q339.27-8.3 339.67-8.95 340.07-9.6 340.87-10.18 341.67-10.75 342.97-11.15L342.97-11.15Q343.27-11.25 343.24-11.43 343.22-11.6 342.92-11.75L342.92-11.75Q340.82-12.9 339.79-14.55 338.77-16.2 338.77-18.5L338.77-18.5Q338.77-22.4 341.64-24.65 344.52-26.9 349.77-26.9L349.77-26.9Q352.32-26.9 354.09-26.33 355.87-25.75 357.12-24.65L357.12-24.65Q357.37-24.45 357.62-24.43 357.87-24.4 358.12-24.65L358.12-24.65Q358.67-25.1 359.37-25.6 360.07-26.1 360.92-26.43 361.77-26.75 362.62-26.75L362.62-26.75ZM349.42-12.8L349.42-12.8Q353.12-12.8 354.94-14.3 356.77-15.8 356.77-18.55L356.77-18.55Q356.77-21.4 354.94-22.98 353.12-24.55 349.42-24.55L349.42-24.55Q345.82-24.55 343.87-22.98 341.92-21.4 341.92-18.55L341.92-18.55Q341.92-15.75 343.87-14.28 345.82-12.8 349.42-12.8L349.42-12.8ZM353.37-3.15L344.82-3.65Q343.97-3.7 342.79-3.1 341.62-2.5 340.72-1.4 339.82-0.3 339.82 1.2L339.82 1.2Q339.82 2.85 340.97 4.03 342.12 5.2 344.34 5.83 346.57 6.45 349.77 6.45L349.77 6.45Q354.12 6.45 356.37 5.13 358.62 3.8 358.62 1.1L358.62 1.1Q358.62-0.75 357.44-1.88 356.27-3 353.37-3.15L353.37-3.15ZM380.61 0L380.61 0Q380.01 0 380.01-0.6L380.01-0.6 380.01-25.95Q380.01-26.5 380.51-26.5L380.51-26.5 382.66-26.5Q383.16-26.5 383.16-26L383.16-26 383.16-23.05Q383.16-22.8 383.26-22.73 383.36-22.65 383.61-22.9L383.61-22.9Q385.26-24.2 386.66-25.13 388.06-26.05 389.49-26.53 390.91-27 392.61-27L392.61-27Q395.66-27 397.41-25.63 399.16-24.25 399.71-22.65L399.71-22.65Q399.81-22.45 400.01-22.5 400.21-22.55 400.41-22.75L400.41-22.75Q402.11-24.1 403.54-25.05 404.96-26 406.41-26.5 407.86-27 409.56-27L409.56-27Q413.21-27 415.19-24.93 417.16-22.85 417.16-19.5L417.16-19.5 417.16-0.65Q417.16 0 416.51 0L416.51 0 414.41 0Q414.16 0 414.01-0.15 413.86-0.3 413.86-0.6L413.86-0.6 413.86-18.65Q413.86-21.3 412.64-22.78 411.41-24.25 408.71-24.25L408.71-24.25Q407.11-24.25 405.66-23.68 404.21-23.1 403.06-22.25 401.91-21.4 401.01-20.65L401.01-20.65Q400.56-20.3 400.39-20 400.21-19.7 400.21-19.15L400.21-19.15 400.21-0.65Q400.21 0 399.61 0L399.61 0 397.51 0Q397.21 0 397.06-0.15 396.91-0.3 396.91-0.6L396.91-0.6 396.91-18.65Q396.91-21.3 395.71-22.78 394.51-24.25 391.76-24.25L391.76-24.25Q389.51-24.25 387.66-23.2 385.81-22.15 383.31-20L383.31-20 383.31-0.6Q383.31 0 382.66 0L382.66 0 380.61 0ZM440.61-3.35L440.61-3.35Q438.66-1.45 436.41-0.48 434.16 0.5 431.46 0.5L431.46 0.5Q427.56 0.5 425.31-1.48 423.06-3.45 423.06-6.75L423.06-6.75Q423.06-9.35 424.51-11.23 425.96-13.1 428.81-14.2 431.66-15.3 435.86-15.6L435.86-15.6 440.31-15.95Q440.71-16 440.93-16.18 441.16-16.35 441.16-16.7L441.16-16.7 441.16-18.15Q441.16-21.05 439.33-22.75 437.51-24.45 434.46-24.45L434.46-24.45Q432.11-24.45 430.21-23.38 428.31-22.3 426.76-20.2L426.76-20.2Q426.61-20 426.48-19.93 426.36-19.85 426.11-19.95L426.11-19.95 424.06-20.8Q423.91-20.9 423.86-21.03 423.81-21.15 424.01-21.45L424.01-21.45Q425.56-23.95 428.18-25.48 430.81-27 434.61-27L434.61-27Q437.76-27 439.93-25.98 442.11-24.95 443.23-23 444.36-21.05 444.36-18.4L444.36-18.4 444.36-0.65Q444.36-0.25 444.23-0.13 444.11 0 443.76 0L443.76 0 441.91 0Q441.61 0 441.46-0.18 441.31-0.35 441.31-0.65L441.31-0.65 441.21-3.25Q441.11-3.95 440.61-3.35L440.61-3.35ZM441.16-12.95L441.16-12.95Q441.16-13.8 440.46-13.7L440.46-13.7 436.71-13.4Q434.11-13.25 432.18-12.75 430.26-12.25 428.96-11.45 427.66-10.65 427.01-9.58 426.36-8.5 426.36-7.1L426.36-7.1Q426.36-4.75 428.01-3.43 429.66-2.1 432.46-2.1L432.46-2.1Q434.16-2.1 435.76-2.73 437.36-3.35 438.61-4.3L438.61-4.3Q439.81-5.35 440.48-6.45 441.16-7.55 441.16-8.55L441.16-8.55 441.16-12.95ZM471.26 0L471.26 0Q470.96 0 470.78-0.18 470.61-0.35 470.61-0.65L470.61-0.65 470.61-2.95Q470.61-3.35 470.46-3.4 470.31-3.45 470.01-3.15L470.01-3.15Q469.51-2.65 468.51-1.78 467.51-0.9 465.91-0.2 464.31 0.5 462.01 0.5L462.01 0.5Q458.86 0.5 456.31-0.98 453.76-2.45 452.23-5.43 450.71-8.4 450.71-12.8L450.71-12.8Q450.71-17.05 452.21-20.23 453.71-23.4 456.41-25.2 459.11-27 462.61-27L462.61-27Q465.21-27 466.88-26.15 468.56-25.3 469.76-24.3L469.76-24.3Q470.21-23.95 470.36-24.05 470.51-24.15 470.51-24.65L470.51-24.65 470.51-36.5Q470.51-37.1 471.06-37.1L471.06-37.1 473.31-37.1Q473.81-37.1 473.81-36.55L473.81-36.55 473.81-0.7Q473.81-0.3 473.66-0.15 473.51 0 473.11 0L473.11 0 471.26 0ZM470.51-20.9L470.51-20.9Q468.81-22.55 467.08-23.48 465.36-24.4 463.26-24.4L463.26-24.4Q460.61-24.4 458.53-23.08 456.46-21.75 455.28-19.2 454.11-16.65 454.11-13L454.11-13Q454.11-9.2 455.33-6.78 456.56-4.35 458.56-3.2 460.56-2.05 462.91-2.05L462.91-2.05Q465.06-2.05 466.78-3.1 468.51-4.15 469.51-5.65 470.51-7.15 470.51-8.55L470.51-8.55 470.51-20.9ZM483.9-11.75L483.9-11.75Q483.9-9.2 485.15-7 486.4-4.8 488.48-3.48 490.55-2.15 493.15-2.15L493.15-2.15Q495.9-2.15 497.93-3.25 499.95-4.35 501.35-6.5L501.35-6.5Q501.5-6.75 501.65-6.78 501.8-6.8 502-6.7L502-6.7 503.7-5.75Q504.1-5.55 503.75-5.15L503.75-5.15Q502.5-3.25 500.93-2 499.35-0.75 497.35-0.13 495.35 0.5 492.95 0.5L492.95 0.5Q489.25 0.5 486.45-1.2 483.65-2.9 482.05-5.98 480.45-9.05 480.45-13L480.45-13Q480.45-17.4 482.1-20.5 483.75-23.6 486.55-25.3 489.35-27 492.9-27L492.9-27Q496.5-27 499.15-25.4 501.8-23.8 503.25-20.8 504.7-17.8 504.7-13.55L504.7-13.55Q504.7-13.2 504.63-12.85 504.55-12.5 504-12.5L504-12.5 484.25-12.5Q484.1-12.5 484-12.28 483.9-12.05 483.9-11.75L483.9-11.75ZM483.95-14.85L500.5-14.85Q501.05-14.85 501.2-15 501.35-15.15 501.35-15.55L501.35-15.55Q501.35-17.95 500.33-19.98 499.3-22 497.43-23.23 495.55-24.45 492.95-24.45L492.95-24.45Q490-24.45 488-23.03 486-21.6 484.98-19.4 483.95-17.2 483.95-14.85L483.95-14.85ZM523.7-11.75L523.7-11.75Q523.7-9.2 524.95-7 526.2-4.8 528.27-3.48 530.35-2.15 532.95-2.15L532.95-2.15Q535.7-2.15 537.72-3.25 539.75-4.35 541.15-6.5L541.15-6.5Q541.3-6.75 541.45-6.78 541.6-6.8 541.8-6.7L541.8-6.7 543.5-5.75Q543.9-5.55 543.55-5.15L543.55-5.15Q542.3-3.25 540.72-2 539.15-0.75 537.15-0.13 535.15 0.5 532.75 0.5L532.75 0.5Q529.05 0.5 526.25-1.2 523.45-2.9 521.85-5.98 520.25-9.05 520.25-13L520.25-13Q520.25-17.4 521.9-20.5 523.55-23.6 526.35-25.3 529.15-27 532.7-27L532.7-27Q536.3-27 538.95-25.4 541.6-23.8 543.05-20.8 544.5-17.8 544.5-13.55L544.5-13.55Q544.5-13.2 544.42-12.85 544.35-12.5 543.8-12.5L543.8-12.5 524.05-12.5Q523.9-12.5 523.8-12.28 523.7-12.05 523.7-11.75L523.7-11.75ZM523.75-14.85L540.3-14.85Q540.85-14.85 541-15 541.15-15.15 541.15-15.55L541.15-15.55Q541.15-17.95 540.12-19.98 539.1-22 537.22-23.23 535.35-24.45 532.75-24.45L532.75-24.45Q529.8-24.45 527.8-23.03 525.8-21.6 524.77-19.4 523.75-17.2 523.75-14.85L523.75-14.85ZM566.35-3.35L566.35-3.35Q564.4-1.45 562.15-0.48 559.9 0.5 557.2 0.5L557.2 0.5Q553.3 0.5 551.05-1.48 548.8-3.45 548.8-6.75L548.8-6.75Q548.8-9.35 550.25-11.23 551.7-13.1 554.55-14.2 557.4-15.3 561.6-15.6L561.6-15.6 566.05-15.95Q566.45-16 566.67-16.18 566.9-16.35 566.9-16.7L566.9-16.7 566.9-18.15Q566.9-21.05 565.07-22.75 563.25-24.45 560.2-24.45L560.2-24.45Q557.85-24.45 555.95-23.38 554.05-22.3 552.5-20.2L552.5-20.2Q552.35-20 552.22-19.93 552.1-19.85 551.85-19.95L551.85-19.95 549.8-20.8Q549.65-20.9 549.6-21.03 549.55-21.15 549.75-21.45L549.75-21.45Q551.3-23.95 553.92-25.48 556.55-27 560.35-27L560.35-27Q563.5-27 565.67-25.98 567.85-24.95 568.97-23 570.1-21.05 570.1-18.4L570.1-18.4 570.1-0.65Q570.1-0.25 569.97-0.13 569.85 0 569.5 0L569.5 0 567.65 0Q567.35 0 567.2-0.18 567.05-0.35 567.05-0.65L567.05-0.65 566.95-3.25Q566.85-3.95 566.35-3.35L566.35-3.35ZM566.9-12.95L566.9-12.95Q566.9-13.8 566.2-13.7L566.2-13.7 562.45-13.4Q559.85-13.25 557.92-12.75 556-12.25 554.7-11.45 553.4-10.65 552.75-9.58 552.1-8.5 552.1-7.1L552.1-7.1Q552.1-4.75 553.75-3.43 555.4-2.1 558.2-2.1L558.2-2.1Q559.9-2.1 561.5-2.73 563.1-3.35 564.35-4.3L564.35-4.3Q565.55-5.35 566.22-6.45 566.9-7.55 566.9-8.55L566.9-8.55 566.9-12.95ZM593.84-20.9L593.84-20.9Q592.74-22.5 590.87-23.48 588.99-24.45 586.39-24.45L586.39-24.45Q583.49-24.45 581.57-23.23 579.64-22 579.64-19.85L579.64-19.85Q579.64-18.7 580.52-17.68 581.39-16.65 584.04-15.8L584.04-15.8 590.54-13.8Q593.79-12.85 595.29-11.13 596.79-9.4 596.79-7.1L596.79-7.1Q596.79-4.85 595.42-3.15 594.04-1.45 591.64-0.48 589.24 0.5 586.24 0.5L586.24 0.5Q582.44 0.5 579.52-1.05 576.59-2.6 575.34-5.05L575.34-5.05Q575.24-5.25 575.24-5.4 575.24-5.55 575.44-5.7L575.44-5.7 577.04-6.65Q577.24-6.75 577.42-6.73 577.59-6.7 577.69-6.55L577.69-6.55Q578.54-5.2 579.74-4.2 580.94-3.2 582.57-2.65 584.19-2.1 586.29-2.1L586.29-2.1Q588.34-2.1 589.99-2.68 591.64-3.25 592.62-4.3 593.59-5.35 593.59-6.75L593.59-6.75Q593.59-8.25 592.37-9.33 591.14-10.4 588.24-11.2L588.24-11.2 583.14-12.7Q579.34-13.8 577.92-15.48 576.49-17.15 576.49-19.25L576.49-19.25Q576.49-21.6 577.77-23.33 579.04-25.05 581.29-26.03 583.54-27 586.44-27L586.44-27Q589.69-27 592.24-25.75 594.79-24.5 596.19-22.35L596.19-22.35Q596.34-22.2 596.34-22.05 596.34-21.9 596.14-21.8L596.14-21.8 594.44-20.8Q594.29-20.75 594.14-20.75 593.99-20.75 593.84-20.9L593.84-20.9ZM603.99 8.25L603.99 8.25Q602.54 8.25 601.69 8.18 600.84 8.1 600.84 7.65L600.84 7.65 600.84 6.2Q600.84 5.85 601.12 5.73 601.39 5.6 602.29 5.6L602.29 5.6 605.39 5.6Q606.54 5.6 607.47 4.8 608.39 4 609.01 2.8 609.64 1.6 609.81 0.35 609.99-0.9 609.64-1.8L609.64-1.8 600.14-25.75Q600.04-26.05 600.14-26.28 600.24-26.5 600.64-26.5L600.64-26.5 602.89-26.5Q603.19-26.5 603.37-26.4 603.54-26.3 603.59-26L603.59-26 611.59-5.45Q611.79-5 612.04-5.03 612.29-5.05 612.49-5.65L612.49-5.65 620.29-26.05Q620.39-26.3 620.54-26.4 620.69-26.5 620.94-26.5L620.94-26.5 622.74-26.5Q623.04-26.5 623.16-26.3 623.29-26.1 623.19-25.9L623.19-25.9 611.99 2.95Q611.39 4.55 610.59 5.58 609.79 6.6 608.81 7.18 607.84 7.75 606.64 8 605.44 8.25 603.99 8.25L603.99 8.25Z" opacity="1" transform="matrix(1,0,0,1,0,0)" fill="#ffffff" class="undefined-text-1" data-fill-palette-color="secondary" id="text-1"></path></svg></g></svg></g></svg></g></svg></g><g transform="matrix(1,0,0,1,425.55960970433546,0)"><svg viewBox="0 0 142.9327898640276 114.95615212006383" height="114.95615212006383" width="142.9327898640276"><g><svg xmlns="http://www.w3.org/2000/svg" xmlns:xlink="http://www.w3.org/1999/xlink" version="1.1" x="0" y="0" viewBox="0 9.78600025177002 100.0003433227539 80.42699432373047" enable-background="new 0 0 100 100" xml:space="preserve" width="142.9327898640276" height="114.95615212006383" class="icon-icon-0" data-fill-palette-color="accent" id="icon-0"><path d="M49.942 52.994c13.552-0.488 27.103-0.977 40.653-1.465-2.527-4.177-3.159-7.831-7.989-8.461-7.229-0.94-14.458-1.883-21.688-2.826-14.023-1.827-28.05-3.654-42.075-5.48C20.101 36.792 39.724 53.361 49.942 52.994z" fill="#ffffff" data-fill-palette-color="accent"></path><path d="M0 9.786c4.391 7.257 26.615 23.072 32.953 23.886 17.33 2.231 34.657 4.46 51.986 6.688-3.393-5.607-4.18-9.35-10.312-10.959-8.904-2.341-17.812-4.683-26.717-7.023C31.94 18.182 15.97 13.984 0 9.786z" fill="#ffffff" data-fill-palette-color="accent"></path><path d="M63.108 66.207c10.413-2.219 20.826-4.439 31.241-6.66-2.028-3.346-2.034-5.359-5.827-5.189-6.158 0.273-12.314 0.549-18.471 0.822-11.343 0.506-22.686 1.014-34.028 1.518C37.298 58.064 54.94 67.947 63.108 66.207z" fill="#ffffff" data-fill-palette-color="accent"></path><path d="M87.682 90.213c5.725-3.719 7.262-7.721 10.519-13.807 3.651-6.824 1.257-7.844-2.821-14.596-0.417-0.688-5.842 0.232-6.453 0.904-0.745 0.818-0.248 5.455-0.294 6.496C88.315 76.211 87.998 83.213 87.682 90.213z" fill="#ffffff" data-fill-palette-color="accent"></path><path d="M86.35 63.447c-3.795 0.809-8.604 0.191-9.572 4.229-1.373 5.736-2.746 11.475-4.12 17.211C81.904 82.678 86.028 71.582 86.35 63.447z" fill="#ffffff" data-fill-palette-color="accent"></path><path d="M74.666 66.121c-9.148 1.953-8.956 4.611-12.879 13.18C68.007 78.711 73.811 71.941 74.666 66.121z" fill="#ffffff" data-fill-palette-color="accent"></path></svg></g></svg></g></svg></g></svg><rect width="395.52" height="79.9790064406306" fill="none" stroke="none" visibility="hidden"></rect></g></svg></g></svg>